<?xml version="1.0" encoding="UTF-8" standalone="no"?>
<!-- Created with Inkscape (http://www.inkscape.org/) -->

<svg
   xmlns:dc="http://purl.org/dc/elements/1.1/"
   xmlns:cc="http://creativecommons.org/ns#"
   xmlns:rdf="http://www.w3.org/1999/02/22-rdf-syntax-ns#"
   xmlns:svg="http://www.w3.org/2000/svg"
   xmlns="http://www.w3.org/2000/svg"
   xmlns:xlink="http://www.w3.org/1999/xlink"
   xmlns:sodipodi="http://sodipodi.sourceforge.net/DTD/sodipodi-0.dtd"
   xmlns:inkscape="http://www.inkscape.org/namespaces/inkscape"
   width="210mm"
   height="297mm"
   viewBox="0 0 210 297"
   version="1.1"
   id="svg8"
   sodipodi:docname="logo za spletno stran ristiÄ.svg"
   inkscape:version="0.92.1 r15371">
  <defs
     id="defs2">
    <linearGradient
       id="linearGradient7401"
       inkscape:collect="always">
      <stop
         id="stop7403"
         offset="0"
         style="stop-color:#cccccc;stop-opacity:1" />
      <stop
         id="stop7405"
         offset="1"
         style="stop-color:#ffffff;stop-opacity:1" />
    </linearGradient>
    <linearGradient
       id="linearGradient7367"
       inkscape:collect="always">
      <stop
         id="stop7369"
         offset="0"
         style="stop-color:#ff4141;stop-opacity:1;" />
      <stop
         id="stop7371"
         offset="1"
         style="stop-color:#ffffff;stop-opacity:1" />
    </linearGradient>
    <linearGradient
       id="linearGradient7217"
       inkscape:collect="always">
      <stop
         id="stop7219"
         offset="0"
         style="stop-color:#bdcdd4;stop-opacity:1" />
      <stop
         id="stop7221"
         offset="1"
         style="stop-color:#ffffff;stop-opacity:1" />
    </linearGradient>
    <linearGradient
       id="linearGradient7177"
       inkscape:collect="always">
      <stop
         id="stop7179"
         offset="0"
         style="stop-color:#364e59;stop-opacity:1;" />
      <stop
         id="stop7181"
         offset="1"
         style="stop-color:#ffffff;stop-opacity:1" />
    </linearGradient>
    <linearGradient
       id="linearGradient7167"
       inkscape:collect="always">
      <stop
         id="stop7169"
         offset="0"
         style="stop-color:#666666;stop-opacity:1;" />
      <stop
         id="stop7171"
         offset="1"
         style="stop-color:#ffffff;stop-opacity:1" />
    </linearGradient>
    <linearGradient
       id="linearGradient7139"
       inkscape:collect="always">
      <stop
         id="stop7141"
         offset="0"
         style="stop-color:#b50000;stop-opacity:1;" />
      <stop
         id="stop7143"
         offset="1"
         style="stop-color:#b50000;stop-opacity:0;" />
    </linearGradient>
    <filter
       height="1.308792"
       y="-0.15439598"
       width="1.2762875"
       x="-0.13814376"
       id="filter7245"
       inkscape:collect="always">
      <feGaussianBlur
         id="feGaussianBlur7247"
         stdDeviation="0.28120692"
         inkscape:collect="always" />
    </filter>
    <filter
       height="1.3929129"
       y="-0.19645644"
       width="1.2417541"
       x="-0.12087707"
       id="filter7249"
       inkscape:collect="always">
      <feGaussianBlur
         id="feGaussianBlur7251"
         stdDeviation="0.28120692"
         inkscape:collect="always" />
    </filter>
    <filter
       id="filter7255"
       inkscape:collect="always">
      <feGaussianBlur
         id="feGaussianBlur7257"
         stdDeviation="0.011012159"
         inkscape:collect="always" />
    </filter>
    <radialGradient
       r="0.44997704"
       fy="19.325228"
       fx="-4.6495471"
       cy="19.325228"
       cx="-4.6495471"
       gradientTransform="matrix(1.5462028,-0.28314811,1.0853897,2.361483,126.8723,143.12724)"
       gradientUnits="userSpaceOnUse"
       id="radialGradient7329"
       xlink:href="#linearGradient7139"
       inkscape:collect="always" />
    <linearGradient
       y2="34.622929"
       x2="19.927555"
       y1="38.158463"
       x1="22.241722"
       gradientUnits="userSpaceOnUse"
       id="linearGradient7343"
       xlink:href="#linearGradient7217"
       inkscape:collect="always"
       gradientTransform="matrix(0.26458333,0,0,0.26458333,214.52502,86.500811)" />
    <radialGradient
       r="4.1765761"
       fy="44.581432"
       fx="13.435029"
       cy="44.581432"
       cx="13.435029"
       gradientTransform="matrix(0.02411633,-0.20975725,0.44264164,0.05089133,198.0221,98.829988)"
       gradientUnits="userSpaceOnUse"
       id="radialGradient7346"
       xlink:href="#linearGradient7177"
       inkscape:collect="always" />
    <radialGradient
       r="0.6428246"
       fy="46.772308"
       fx="4.6283355"
       cy="46.772308"
       cx="4.6283355"
       gradientTransform="matrix(0.50270819,-0.34395862,0.22410899,0.32754358,202.9408,85.181987)"
       gradientUnits="userSpaceOnUse"
       id="radialGradient7349"
       xlink:href="#linearGradient7167"
       inkscape:collect="always" />
    <radialGradient
       r="9.0967276"
       fy="19.366058"
       fx="49.368908"
       cy="19.366058"
       cx="49.368908"
       gradientTransform="matrix(-0.6753445,0.31397011,-0.10129124,-0.05083411,263.48937,77.326183)"
       gradientUnits="userSpaceOnUse"
       id="radialGradient7354"
       xlink:href="#linearGradient7139"
       inkscape:collect="always" />
    <radialGradient
       r="9.0967276"
       fy="19.366058"
       fx="49.368908"
       cy="19.366058"
       cx="49.368908"
       gradientTransform="matrix(-0.6753445,0.31397011,-0.10129124,-0.05083411,262.74101,76.3057)"
       gradientUnits="userSpaceOnUse"
       id="radialGradient7357"
       xlink:href="#linearGradient7139"
       inkscape:collect="always" />
    <linearGradient
       gradientUnits="userSpaceOnUse"
       y2="22.566189"
       x2="-10.17464"
       y1="22.401527"
       x1="-20.609594"
       id="linearGradient7373"
       xlink:href="#linearGradient7367"
       inkscape:collect="always" />
    <filter
       id="filter7375"
       inkscape:collect="always">
      <feGaussianBlur
         id="feGaussianBlur7377"
         stdDeviation="0.26961283"
         inkscape:collect="always" />
    </filter>
    <filter
       id="filter7383"
       inkscape:collect="always">
      <feGaussianBlur
         id="feGaussianBlur7385"
         stdDeviation="0.48242665"
         inkscape:collect="always" />
    </filter>
    <linearGradient
       gradientUnits="userSpaceOnUse"
       y2="34.545456"
       x2="23.454546"
       y1="45.81818"
       x1="6.7272725"
       id="linearGradient7393"
       xlink:href="#linearGradient7401"
       inkscape:collect="always"
       gradientTransform="matrix(0.26458333,0,0,0.26458333,214.52502,86.500811)" />
    <linearGradient
       inkscape:collect="always"
       xlink:href="#linearGradient7367"
       id="linearGradient6002"
       gradientUnits="userSpaceOnUse"
       x1="-20.609594"
       y1="22.401527"
       x2="-10.17464"
       y2="22.566189" />
  </defs>
  <sodipodi:namedview
     id="base"
     pagecolor="#ffffff"
     bordercolor="#666666"
     borderopacity="1.0"
     inkscape:pageopacity="0.0"
     inkscape:pageshadow="2"
     inkscape:zoom="1.85"
     inkscape:cx="390.74458"
     inkscape:cy="750.46567"
     inkscape:document-units="mm"
     inkscape:current-layer="layer1"
     showgrid="false"
     inkscape:window-width="1920"
     inkscape:window-height="1017"
     inkscape:window-x="-8"
     inkscape:window-y="-8"
     inkscape:window-maximized="1"
     inkscape:snap-global="false" />
  <metadata
     id="metadata5">
    <rdf:RDF>
      <cc:Work
         rdf:about="">
        <dc:format>image/svg+xml</dc:format>
        <dc:type
           rdf:resource="http://purl.org/dc/dcmitype/StillImage" />
        <dc:title></dc:title>
      </cc:Work>
    </rdf:RDF>
  </metadata>
  <g
     inkscape:label="Layer 1"
     inkscape:groupmode="layer"
     id="layer1">
    <path
       inkscape:connector-curvature="0"
       id="path148"
       style="fill:#2c2cd7;fill-opacity:1;fill-rule:nonzero;stroke:none;stroke-width:0.04045166"
       d="m 99.859427,100.39451 c 0,0 -5.647592,2.18882 -9.165596,-2.558975 l -2.4635,2.269305 c 0,0 6.644021,9.21941 15.152579,4.98111 l -3.523483,-4.69144"
       inkscape:export-xdpi="153.82771"
       inkscape:export-ydpi="153.82771" />
    <path
       inkscape:connector-curvature="0"
       id="path154"
       style="fill:#d92626;fill-opacity:1;fill-rule:nonzero;stroke:none;stroke-width:0.0328353"
       d="m 102.56939,106.2304 c -0.11694,0.0305 -0.23373,0.0632 -0.34908,0.0861 l -2.12792,-4.71744 c 0.13469,-0.0109 0.2648,-0.0256 0.38848,-0.0445 l 2.0885,4.67578"
       inkscape:export-xdpi="153.82771"
       inkscape:export-ydpi="153.82771" />
    <path
       sodipodi:nodetypes="ccccccccccccc"
       inkscape:connector-curvature="0"
       id="path124-0"
       style="fill:#2c2cd7;fill-opacity:1;fill-rule:nonzero;stroke:none;stroke-width:0.05134698"
       d="m 84.969681,96.259222 0.927362,1.2932 c 0,0 1.799964,-1.1877 3.617288,0.40394 0,0 1.228985,0.85439 -0.222717,1.70624 -0.90984,1.134748 -2.447616,0.561738 -2.447616,0.561738 -2.756526,-0.801448 -1.43503,-2.239318 -1.43503,-2.239318 l -2.111921,-0.29675 c 0,0 -1.943107,2.188314 1.297538,3.328468 3.240509,1.1405 5.412932,0.0264 5.412932,0.0264 l 0.443001,-0.79033 1.00023,-0.445688 c 0,0 1.220788,-1.5373 -1.205957,-3.36178 -2.503453,-1.7899 -6.649135,0.44024 -5.275153,-0.18559"
       inkscape:export-xdpi="153.82771"
       inkscape:export-ydpi="153.82771" />
    <path
       inkscape:connector-curvature="0"
       id="path156"
       style="fill:#d92626;fill-opacity:1;fill-rule:nonzero;stroke:none;stroke-width:0.04113809"
       d="m 97.291766,100.97451 c 0.176931,8e-5 0.350928,-0.005 0.520541,-0.0172 l 2.428203,5.36906 c -0.16713,0.007 -0.333647,0.0108 -0.498832,0.008 l -2.449912,-5.36019"
       inkscape:export-xdpi="153.82771"
       inkscape:export-ydpi="153.82771" />
    <path
       inkscape:connector-curvature="0"
       id="path158"
       style="fill:#d92626;fill-opacity:1;fill-rule:nonzero;stroke:none;stroke-width:0.04113809"
       d="m 93.119005,99.914061 c 0.147148,0.108639 0.294527,0.208479 0.441875,0.301609 l -0.578187,4.00392 c -0.145988,-0.10067 -0.288096,-0.2012 -0.425682,-0.30195 l 0.561994,-4.003579"
       inkscape:export-xdpi="153.82771"
       inkscape:export-ydpi="153.82771" />
    <path
       inkscape:connector-curvature="0"
       id="path160"
       style="fill:#d92626;fill-opacity:1;fill-rule:nonzero;stroke:none;stroke-width:0.04113809"
       d="m 97.019615,105.88337 c -0.173257,-0.0534 -0.345184,-0.10878 -0.513795,-0.16982 l -1.240164,-5.04863 c 0.177602,0.0562 0.353991,0.10365 0.528824,0.14328 l 1.225135,5.07517"
       inkscape:export-xdpi="153.82771"
       inkscape:export-ydpi="153.82771" />
    <path
       inkscape:connector-curvature="0"
       id="path118"
       style="fill:#e9c533;fill-opacity:1;fill-rule:nonzero;stroke:none;stroke-width:0.03527778"
       d="m 117.53415,126.225 h -3.72534 c -1.32574,0 -2.41053,-1.08479 -2.41053,-2.41053 v -8.91999 c 0,-1.32609 1.08479,-2.41088 2.41053,-2.41088 h 3.72534 c 1.32573,0 2.41053,1.08479 2.41053,2.41088 v 8.91999 c 0,1.32574 -1.0848,2.41053 -2.41053,2.41053"
       inkscape:export-xdpi="153.82771"
       inkscape:export-ydpi="153.82771" />
    <path
       inkscape:connector-curvature="0"
       id="path120"
       style="fill:#f5dc4c;fill-opacity:1;fill-rule:nonzero;stroke:none;stroke-width:0.03527778"
       d="m 116.02602,124.59376 h -2.21721 c -1.32574,0 -2.41053,-1.0848 -2.41053,-2.41054 v -6.49534 c 0,-1.32574 1.08479,-2.41053 2.41053,-2.41053 h 2.21721 c 1.32574,0 2.41053,1.08479 2.41053,2.41053 v 6.49534 c 0,1.32574 -1.08479,2.41054 -2.41053,2.41054"
       inkscape:export-xdpi="153.82771"
       inkscape:export-ydpi="153.82771" />
    <path
       inkscape:connector-curvature="0"
       id="path122"
       style="fill:#ffffff;fill-opacity:1;fill-rule:nonzero;stroke:none;stroke-width:0.03527778"
       d="m 113.38513,121.57468 h -0.4124 c -0.26705,0 -0.48507,-0.21801 -0.48507,-0.48507 v -2.73755 c 0,-0.2667 0.21802,-0.48507 0.48507,-0.48507 h 0.4124 c 0.2667,0 0.48507,0.21837 0.48507,0.48507 v 2.73755 c 0,0.26706 -0.21837,0.48507 -0.48507,0.48507"
       inkscape:export-xdpi="153.82771"
       inkscape:export-ydpi="153.82771" />
    <path
       inkscape:connector-curvature="0"
       id="path128"
       style="fill:#2c2cd7;fill-opacity:1;fill-rule:nonzero;stroke:none;stroke-width:0.03527778"
       d="m 130.17979,106.36218 c 0,0 5.13009,1.32053 6.26462,6.72938 l 2.68112,-0.41049 c 0,0 -2.0574,-10.40476 -10.10321,-11.68824 l 1.15747,5.36935"
       inkscape:export-xdpi="153.82771"
       inkscape:export-ydpi="153.82771" />
    <path
       inkscape:connector-curvature="0"
       id="path130"
       style="fill:#d92626;fill-opacity:1;fill-rule:nonzero;stroke:none;stroke-width:0.03527778"
       d="m 130.9083,107.76097 -1.99636,-0.25611 0.94756,-7.38752 1.99637,0.25611 -0.94757,7.38752"
       inkscape:export-xdpi="153.82771"
       inkscape:export-ydpi="153.82771" />
    <path
       inkscape:connector-curvature="0"
       id="path150"
       style="fill:#d92626;fill-opacity:1;fill-rule:nonzero;stroke:none;stroke-width:0.0328353"
       d="m 100.73096,107.3717 1.7295,-0.25611 -0.82089,-7.387521 -1.729499,0.25611 0.820889,7.387521"
       inkscape:export-xdpi="153.82771"
       inkscape:export-ydpi="153.82771" />
    <path
       inkscape:connector-curvature="0"
       id="path162"
       style="fill:#d92626;fill-opacity:1;fill-rule:nonzero;stroke:none;stroke-width:0.03527778"
       d="m 110.14133,99.328876 h 11.22797 v -4.69223 h -11.22797 z"
       inkscape:export-xdpi="153.82771"
       inkscape:export-ydpi="153.82771" />
    <path
       inkscape:connector-curvature="0"
       id="path164"
       style="fill:#e82a22;fill-opacity:1;fill-rule:nonzero;stroke:none;stroke-width:0.03527778"
       d="m 104.43939,99.717636 c 0.061,-1.31727 1.14511,-2.36714 2.47755,-2.36714 h 18.00296 c 1.33244,0 2.41618,1.04987 2.47756,2.36714 h -22.95807"
       inkscape:export-xdpi="153.82771"
       inkscape:export-ydpi="153.82771" />
    <path
       inkscape:connector-curvature="0"
       id="path166"
       style="fill:#ef342e;fill-opacity:1;fill-rule:nonzero;stroke:none;stroke-width:0.03527778"
       d="m 130.77919,98.985976 v 2.291994 c 0,8.26311 -6.76099,15.02374 -15.02375,15.02374 v 0 c -8.26311,0 -15.02375,-6.76063 -15.02375,-15.02374 v -2.291994 h 30.0475"
       inkscape:export-xdpi="153.82771"
       inkscape:export-ydpi="153.82771" />
    <path
       inkscape:connector-curvature="0"
       id="path168"
       style="fill:#2c2cd7;fill-opacity:1;fill-rule:nonzero;stroke:none;stroke-width:0.03527778"
       d="m 127.76259,98.985976 h -24.01465 v 1.056574 c 0,6.604 5.40315,12.00713 12.0075,12.00713 6.604,0 12.00715,-5.40313 12.00715,-12.00713 v -1.056574"
       inkscape:export-xdpi="153.82771"
       inkscape:export-ydpi="153.82771" />
    <path
       inkscape:connector-curvature="0"
       id="path170"
       style="fill:#2c2cd7;fill-opacity:1;fill-rule:nonzero;stroke:none;stroke-width:0.03527778"
       d="m 137.20292,83.625675 h -2.21051 c -1.43016,0 -2.59997,-1.169811 -2.59997,-2.599972 v -3.735917 c 0,-1.430161 1.16981,-2.599972 2.59997,-2.599972 h 2.21051 c 1.42981,0 2.59997,1.169811 2.59997,2.599972 v 3.735917 c 0,1.430161 -1.17016,2.599972 -2.59997,2.599972"
       inkscape:export-xdpi="153.82771"
       inkscape:export-ydpi="153.82771" />
    <path
       inkscape:connector-curvature="0"
       id="path172"
       style="fill:#2c2cd7;fill-opacity:1;fill-rule:nonzero;stroke:none;stroke-width:0.03527778"
       d="m 96.518114,83.625675 h -2.21015 c -1.43016,0 -2.60032,-1.169811 -2.60032,-2.599972 v -3.735917 c 0,-1.430161 1.17016,-2.599972 2.60032,-2.599972 h 2.21015 c 1.43016,0 2.59998,1.169811 2.59998,2.599972 v 3.735917 c 0,1.430161 -1.16982,2.599972 -2.59998,2.599972"
       inkscape:export-xdpi="153.82771"
       inkscape:export-ydpi="153.82771" />
    <path
       inkscape:connector-curvature="0"
       id="path174"
       style="fill:#2c2cd7;fill-opacity:1;fill-rule:nonzero;stroke:none;stroke-width:0.03527778"
       d="m 136.29734,78.594006 c 0,11.08322 -9.16446,17.6597 -20.46923,17.6597 -11.30512,0 -20.469576,-6.57648 -20.469576,-17.6597 0,-11.083221 9.164456,-20.068118 20.469576,-20.068118 11.30477,0 20.46923,8.984897 20.46923,20.068118"
       inkscape:export-xdpi="153.82771"
       inkscape:export-ydpi="153.82771" />
    <path
       inkscape:connector-curvature="0"
       id="path176"
       style="fill:#2c2cd7;fill-opacity:1;fill-rule:nonzero;stroke:none;stroke-width:0.03527778"
       d="m 134.98959,77.673608 c 0,10.574868 -8.43245,16.849728 -18.83481,16.849728 -10.402,0 -18.834446,-6.27486 -18.834446,-16.849728 0,-10.57522 8.432446,-19.14772 18.834446,-19.14772 10.40236,0 18.83481,8.5725 18.83481,19.14772"
       inkscape:export-xdpi="153.82771"
       inkscape:export-ydpi="153.82771" />
    <path
       inkscape:connector-curvature="0"
       id="path178"
       style="fill:#109f07;fill-opacity:1;fill-rule:nonzero;stroke:none;stroke-width:0.03527778"
       d="m 130.85786,76.541897 c 0,7.181498 -6.72924,11.443049 -15.02975,11.443049 -8.30086,0 -15.0301,-4.261551 -15.0301,-11.443049 0,-7.181497 6.72924,-13.003037 15.0301,-13.003037 8.30051,0 15.02975,5.82154 15.02975,13.003037"
       inkscape:export-xdpi="153.82771"
       inkscape:export-ydpi="153.82771" />
    <path
       inkscape:connector-curvature="0"
       id="path180"
       style="fill:#20ff00;fill-opacity:1;fill-rule:nonzero;stroke:none;stroke-width:0.03527778"
       d="m 130.85786,76.001089 c 0,6.882695 -6.72924,10.966807 -15.02975,10.966807 -8.30086,0 -15.0301,-4.084112 -15.0301,-10.966807 0,-6.882695 6.72924,-12.462229 15.0301,-12.462229 8.30051,0 15.02975,5.579534 15.02975,12.462229"
       inkscape:export-xdpi="153.82771"
       inkscape:export-ydpi="153.82771" />
    <path
       inkscape:connector-curvature="0"
       id="path182"
       style="fill:#1cee00;fill-opacity:1;fill-rule:nonzero;stroke:none;stroke-width:0.03527778"
       d="m 126.81714,73.636419 c -0.68051,3.535892 -4.54131,4.968523 -8.80569,4.147609 -4.26437,-0.820561 -7.31731,-3.584223 -6.6368,-7.120115 0.6805,-3.535891 4.68947,-5.736872 8.9535,-4.915958 4.26437,0.820914 7.16985,4.352572 6.48899,7.888464"
       inkscape:export-xdpi="153.82771"
       inkscape:export-ydpi="153.82771" />
    <path
       inkscape:connector-curvature="0"
       id="path184"
       style="fill:#3b393d;fill-opacity:1;fill-rule:nonzero;stroke:none;stroke-width:0.03527778"
       d="m 109.28938,77.631981 c 0,1.264002 -1.02447,2.288822 -2.28847,2.288822 -1.26401,0 -2.28847,-1.02482 -2.28847,-2.288822 0,-1.263651 1.02446,-2.28847 2.28847,-2.28847 1.264,0 2.28847,1.024819 2.28847,2.28847"
       inkscape:export-xdpi="153.82771"
       inkscape:export-ydpi="153.82771" />
    <path
       inkscape:connector-curvature="0"
       id="path186"
       style="fill:#3b393d;fill-opacity:1;fill-rule:nonzero;stroke:none;stroke-width:0.03527778"
       d="m 126.94344,77.631981 c 0,1.264002 -1.02447,2.288822 -2.28847,2.288822 -1.26365,0 -2.28847,-1.02482 -2.28847,-2.288822 0,-1.263651 1.02482,-2.28847 2.28847,-2.28847 1.264,0 2.28847,1.024819 2.28847,2.28847"
       inkscape:export-xdpi="153.82771"
       inkscape:export-ydpi="153.82771" />
    <path
       inkscape:connector-curvature="0"
       id="path188"
       style="fill:#e82a22;fill-opacity:1;fill-rule:nonzero;stroke:none;stroke-width:0.03527778"
       d="m 129.37831,68.804774 c -0.28399,-0.04621 -0.55316,-0.192263 -0.74966,-0.432858 -1.62383,-1.990725 -3.06034,-2.693106 -3.07481,-2.700161 -0.6036,-0.289278 -0.86466,-1.013178 -0.57996,-1.618898 0.28469,-0.606072 1.00012,-0.871008 1.60831,-0.590197 0.0776,0.03598 1.92546,0.905581 3.93488,3.369028 0.4251,0.521406 0.34749,1.28905 -0.17427,1.7145 -0.28046,0.228953 -0.63253,0.311856 -0.96449,0.258586"
       inkscape:export-xdpi="153.82771"
       inkscape:export-ydpi="153.82771" />
    <path
       inkscape:connector-curvature="0"
       id="path190"
       style="fill:#f7976a;fill-opacity:1;fill-rule:nonzero;stroke:none;stroke-width:0.03527778"
       d="m 126.57796,107.00179 c -0.0286,-0.21942 0.0201,-0.44943 0.15451,-0.64664 1.1109,-1.63159 1.31375,-2.84339 1.31587,-2.85538 0.0808,-0.50765 0.55668,-0.85866 1.06503,-0.7814 0.50871,0.0773 0.86043,0.54574 0.7867,1.05551 -0.01,0.0649 -0.24589,1.61607 -1.62031,3.63502 -0.29104,0.42686 -0.87313,0.53763 -1.30034,0.24659 -0.23037,-0.15628 -0.3683,-0.39758 -0.40146,-0.6537"
       inkscape:export-xdpi="153.82771"
       inkscape:export-ydpi="153.82771" />
    <path
       inkscape:connector-curvature="0"
       id="path192"
       style="fill:#f7976a;fill-opacity:1;fill-rule:nonzero;stroke:none;stroke-width:0.03527778"
       d="m 108.43036,107.53308 -0.4572,-0.49601 c -0.29598,-0.32103 -0.27552,-0.82585 0.0455,-1.12183 l 3.82235,-3.5246 c 0.32103,-0.29598 0.8255,-0.27552 1.12148,0.0455 l 0.45755,0.49601 c 0.29598,0.32103 0.27552,0.82585 -0.0455,1.12183 l -3.82234,3.52461 c -0.32103,0.29598 -0.82586,0.27552 -1.12184,-0.0455"
       inkscape:export-xdpi="153.82771"
       inkscape:export-ydpi="153.82771" />
    <path
       inkscape:connector-curvature="0"
       id="path194"
       style="fill:#e82a22;fill-opacity:1;fill-rule:nonzero;stroke:none;stroke-width:0.03527778"
       d="m 108.43036,107.28155 -0.4572,-0.49601 c -0.29598,-0.32103 -0.27552,-0.82585 0.0455,-1.12148 l 3.82235,-3.5246 c 0.32103,-0.29598 0.8255,-0.27552 1.12148,0.0451 l 0.45755,0.49636 c 0.29598,0.32103 0.27552,0.8255 -0.0455,1.12148 l -3.82234,3.52461 c -0.32103,0.29598 -0.82586,0.27552 -1.12184,-0.0455"
       inkscape:export-xdpi="153.82771"
       inkscape:export-ydpi="153.82771" />
    <path
       inkscape:connector-curvature="0"
       id="path196"
       style="fill:#f7976a;fill-opacity:1;fill-rule:nonzero;stroke:none;stroke-width:0.03527778"
       d="m 113.4892,107.53308 -0.45756,-0.49601 c -0.29563,-0.32103 -0.27516,-0.82585 0.0455,-1.12183 l 3.8227,-3.5246 c 0.32068,-0.29598 0.8255,-0.27552 1.12148,0.0455 l 0.45755,0.49601 c 0.29599,0.32103 0.27552,0.82585 -0.0455,1.12183 l -3.82235,3.52461 c -0.32103,0.29598 -0.82585,0.27552 -1.12183,-0.0455"
       inkscape:export-xdpi="153.82771"
       inkscape:export-ydpi="153.82771" />
    <path
       inkscape:connector-curvature="0"
       id="path198"
       style="fill:#e82a22;fill-opacity:1;fill-rule:nonzero;stroke:none;stroke-width:0.03527778"
       d="m 113.4892,107.28155 -0.45756,-0.49601 c -0.29563,-0.32103 -0.27516,-0.82585 0.0455,-1.12148 l 3.8227,-3.5246 c 0.32068,-0.29598 0.8255,-0.27552 1.12148,0.0451 l 0.45755,0.49636 c 0.29599,0.32103 0.27552,0.8255 -0.0455,1.12148 l -3.82235,3.52461 c -0.32103,0.29598 -0.82585,0.27552 -1.12183,-0.0455"
       inkscape:export-xdpi="153.82771"
       inkscape:export-ydpi="153.82771" />
    <path
       inkscape:connector-curvature="0"
       id="path200"
       style="fill:#f7976a;fill-opacity:1;fill-rule:nonzero;stroke:none;stroke-width:0.03527778"
       d="m 118.54803,107.53308 -0.45755,-0.49601 c -0.29598,-0.32103 -0.27552,-0.82585 0.0455,-1.12183 l 3.8227,-3.5246 c 0.32068,-0.29598 0.8255,-0.27552 1.12149,0.0455 l 0.45755,0.49601 c 0.29563,0.32103 0.27516,0.82585 -0.0455,1.12183 l -3.8227,3.52461 c -0.32068,0.29598 -0.8255,0.27552 -1.12148,-0.0455"
       inkscape:export-xdpi="153.82771"
       inkscape:export-ydpi="153.82771" />
    <path
       inkscape:connector-curvature="0"
       id="path202"
       style="fill:#e82a22;fill-opacity:1;fill-rule:nonzero;stroke:none;stroke-width:0.03527778"
       d="m 118.54803,107.28155 -0.45755,-0.49601 c -0.29598,-0.32103 -0.27552,-0.82585 0.0455,-1.12148 l 3.8227,-3.5246 c 0.32068,-0.29598 0.8255,-0.27552 1.12149,0.0451 l 0.45755,0.49636 c 0.29563,0.32103 0.27516,0.8255 -0.0455,1.12148 l -3.8227,3.52461 c -0.32068,0.29598 -0.8255,0.27552 -1.12148,-0.0455"
       inkscape:export-xdpi="153.82771"
       inkscape:export-ydpi="153.82771" />
    <path
       inkscape:connector-curvature="0"
       id="path204"
       style="fill:#c2202d;fill-opacity:1;fill-rule:nonzero;stroke:none;stroke-width:0.03527778"
       d="m 110.14133,117.00833 h 11.0604 V 115.081 h -11.0604 z"
       inkscape:export-xdpi="153.82771"
       inkscape:export-ydpi="153.82771" />
    <path
       inkscape:connector-curvature="0"
       id="path206"
       style="fill:#3b393d;fill-opacity:1;fill-rule:nonzero;stroke:none;stroke-width:0.03527778"
       d="m 115.75544,84.527375 c -1.8796,0 -3.35139,-1.045986 -3.35139,-2.38125 0,-0.2921 0.23671,-0.529166 0.52917,-0.529166 0.2921,0 0.52916,0.237066 0.52916,0.529166 0,0.70485 1.07139,1.322917 2.29306,1.322917 1.22167,0 2.29306,-0.618067 2.29306,-1.322917 0,-0.2921 0.23671,-0.529166 0.52916,-0.529166 0.2921,0 0.52917,0.237066 0.52917,0.529166 0,1.335264 -1.47214,2.38125 -3.35139,2.38125"
       inkscape:export-xdpi="153.82771"
       inkscape:export-ydpi="153.82771" />
    <path
       sodipodi:nodetypes="ccccccccccccc"
       inkscape:connector-curvature="0"
       id="path124"
       style="fill:#2c2cd7;fill-opacity:1;fill-rule:nonzero;stroke:none;stroke-width:0.03527778"
       d="m 139.53587,115.71663 -0.95896,-0.7171 c 0,0 1.17137,-0.81202 0.0652,-2.06949 0,0 -0.566,-0.81557 -1.42375,-0.14403 -1.03036,0.32667 -0.72898,1.26937 -0.72898,1.26937 0.35517,1.65445 1.67926,1.14701 1.67926,1.14701 l 0.0119,1.21781 c 0,0 -2.01107,0.61641 -2.59094,-1.35964 -0.58019,-1.97603 0.57544,-2.88798 0.57544,-2.88798 l 0.69671,-0.12177 0.47516,-0.48484 c 0,0 1.39459,-0.436 2.62492,1.19597 1.19356,1.66908 -1.08984,3.61859 -0.42598,2.95471"
       inkscape:export-xdpi="153.82771"
       inkscape:export-ydpi="153.82771" />
    <path
       inkscape:connector-curvature="0"
       id="path126"
       style="fill:#2c2cd7;fill-opacity:1;fill-rule:nonzero;stroke:none;stroke-width:0.03527778"
       d="m 135.16459,111.94342 0.49379,1.20616 2.83875,-1.62592 -0.60368,-1.5053 -2.72886,1.92506"
       inkscape:export-xdpi="153.82771"
       inkscape:export-ydpi="153.82771" />
    <path
       inkscape:connector-curvature="0"
       id="path132"
       style="fill:#d92626;fill-opacity:1;fill-rule:nonzero;stroke:none;stroke-width:0.03527778"
       d="m 134.66264,110.8012 3.98095,-2.3669 0.65114,1.63768 -3.82298,2.4553 -0.80911,-1.72608"
       inkscape:export-xdpi="153.82771"
       inkscape:export-ydpi="153.82771" />
    <path
       inkscape:connector-curvature="0"
       id="path136"
       style="fill:#d92626;fill-opacity:1;fill-rule:nonzero;stroke:none;stroke-width:0.03527778"
       d="m 131.8676,106.97215 c -0.13598,-0.0711 -0.27124,-0.13702 -0.40562,-0.1958 l 0.0522,-5.12159 c 0.13079,0.0615 0.2597,0.12565 0.38548,0.19393 l -0.0321,5.12346"
       inkscape:export-xdpi="153.82771"
       inkscape:export-ydpi="153.82771" />
    <path
       inkscape:connector-curvature="0"
       id="path138"
       style="fill:#d92626;fill-opacity:1;fill-rule:nonzero;stroke:none;stroke-width:0.03527778"
       d="m 134.45777,109.60134 c -0.0741,-0.14299 -0.15118,-0.27931 -0.2313,-0.4104 l 1.87087,-2.85994 c 0.0761,0.13637 0.14918,0.27108 0.21876,0.40415 l -1.85833,2.86619"
       inkscape:export-xdpi="153.82771"
       inkscape:export-ydpi="153.82771" />
    <path
       inkscape:connector-curvature="0"
       id="path140"
       style="fill:#d92626;fill-opacity:1;fill-rule:nonzero;stroke:none;stroke-width:0.03527778"
       d="m 133.82644,103.29043 c 0.11344,0.11092 0.22556,0.22265 0.33343,0.33748 l -0.84933,4.39704 c -0.11613,-0.11479 -0.23415,-0.22223 -0.35442,-0.32303 l 0.87032,-4.41149"
       inkscape:export-xdpi="153.82771"
       inkscape:export-ydpi="153.82771" />
    <g
       id="g6067"
       transform="translate(-88.30168,21.657732)"
       inkscape:export-xdpi="153.82771"
       inkscape:export-ydpi="153.82771">
      <path
         sodipodi:nodetypes="scssccsscsss"
         inkscape:connector-curvature="0"
         id="path5780"
         d="m 228.79109,89.276487 c -0.70964,0.02503 -4.99385,2.822616 -4.99385,2.822616 0,0 -0.094,0.589799 -0.32569,0.705635 -0.23169,0.115898 -0.50668,-0.217342 -0.75993,-0.162835 -0.41748,0.08984 -0.86849,0.977098 -0.86849,0.977098 l 1.0856,2.008391 c 0,0 0.98297,0.189584 1.2485,-0.05428 0.24495,-0.225033 0.10355,-0.737715 0.37995,-0.922801 0.24054,-0.161073 0.86848,0 0.86848,0 0,0 3.72333,-1.787823 4.83105,-2.659765 0.4324,-0.340374 -0.008,-1.145262 -0.27139,-1.628447 -0.2575,-0.472353 -0.65659,-1.104574 -1.19423,-1.085612 z"
         style="fill:#ffd42a;fill-opacity:1;stroke:#000000;stroke-width:0;stroke-linecap:butt;stroke-linejoin:miter;stroke-miterlimit:4;stroke-dasharray:none;stroke-opacity:1" />
      <path
         sodipodi:nodetypes="ccccccccc"
         inkscape:connector-curvature="0"
         id="path5782"
         d="m 222.31949,94.439046 -4.47651,2.592355 -0.72225,0.01191 -1.35421,1.506338 0.36112,0.468026 1.89592,-0.917148 0.18057,-0.736515 4.31629,-2.462567 z"
         style="fill:url(#linearGradient7393);fill-opacity:1;stroke:#d7d7d7;stroke-width:0.05291667;stroke-linecap:butt;stroke-linejoin:miter;stroke-miterlimit:4;stroke-dasharray:none;stroke-opacity:1" />
      <path
         inkscape:transform-center-y="-0.49860594"
         inkscape:transform-center-x="8.093913"
         sodipodi:nodetypes="ccccc"
         inkscape:connector-curvature="0"
         id="path5784"
         d="m 224.79106,92.397653 c 0.24167,-0.104742 4.47413,-2.463933 4.47413,-2.463933 0.2481,-0.399122 -0.29944,-0.1579 -0.68013,-0.05097 l -4.28234,2.399331 c -0.24276,0.222669 -0.78807,0.58274 0.48834,0.115567 z"
         style="fill:url(#radialGradient7357);fill-opacity:1;stroke:#000000;stroke-width:0;stroke-linecap:butt;stroke-linejoin:miter;stroke-miterlimit:4;stroke-dasharray:none;stroke-opacity:1" />
      <path
         style="fill:url(#radialGradient7354);fill-opacity:1;stroke:#000000;stroke-width:0;stroke-linecap:butt;stroke-linejoin:miter;stroke-miterlimit:4;stroke-dasharray:none;stroke-opacity:1"
         d="m 225.53941,93.418137 c 0.24168,-0.104743 4.47413,-2.463933 4.47413,-2.463933 0.2481,-0.399123 -0.29944,-0.1579 -0.68013,-0.05097 l -4.28234,2.399331 c -0.24276,0.22267 -0.78807,0.582741 0.48834,0.115568 z"
         id="path7133"
         inkscape:connector-curvature="0"
         sodipodi:nodetypes="ccccc"
         inkscape:transform-center-x="8.093913"
         inkscape:transform-center-y="-0.49860594" />
      <ellipse
         transform="matrix(0.87766321,-0.47927789,0.52101213,0.85354927,0,0)"
         id="path7137"
         style="fill:url(#radialGradient7329);fill-opacity:1;stroke:#a5a1ef;stroke-width:0;stroke-linecap:round;stroke-linejoin:round;stroke-miterlimit:4;stroke-dasharray:none;stroke-dashoffset:0;stroke-opacity:0"
         cx="140.68027"
         cy="189.91281"
         rx="0.11426028"
         ry="1.1430079" />
      <path
         inkscape:connector-curvature="0"
         id="path7165"
         d="m 215.76661,98.552831 0.017,0.153072 0.28913,0.357169 0.034,-0.08504 z"
         style="fill:url(#radialGradient7349);fill-opacity:1;stroke:#000000;stroke-width:0;stroke-linecap:butt;stroke-linejoin:miter;stroke-miterlimit:4;stroke-dasharray:none;stroke-opacity:1" />
      <path
         inkscape:connector-curvature="0"
         id="path7175"
         d="m 216.12378,98.99504 0.017,0.08504 1.93891,-0.799379 0.22111,-0.816387 -0.085,-0.102048 -0.18709,0.731346 z"
         style="fill:url(#radialGradient7346);fill-opacity:1;stroke:#000000;stroke-width:0;stroke-linecap:butt;stroke-linejoin:miter;stroke-miterlimit:4;stroke-dasharray:none;stroke-opacity:1" />
      <path
         sodipodi:nodetypes="ccccc"
         inkscape:connector-curvature="0"
         id="path7185"
         d="m 218.21577,97.481323 4.28603,-2.432153 -0.068,-0.17008 -4.30304,2.466168 z"
         style="fill:url(#linearGradient7343);fill-opacity:1;stroke:#000000;stroke-width:0;stroke-linecap:butt;stroke-linejoin:miter;stroke-miterlimit:4;stroke-dasharray:none;stroke-opacity:1" />
      <path
         transform="matrix(0.26458333,0,0,0.26458333,214.52502,86.500811)"
         sodipodi:nodetypes="cc"
         inkscape:connector-curvature="0"
         id="path7233"
         d="M 6.1068313,44.972399 10.992297,40.601193"
         style="opacity:0.13170734;fill:none;stroke:#000000;stroke-width:0.2;stroke-linecap:butt;stroke-linejoin:miter;stroke-miterlimit:4;stroke-dasharray:none;stroke-opacity:1;filter:url(#filter7245)" />
      <path
         transform="matrix(0.26458333,0,0,0.26458333,214.52502,86.500811)"
         style="opacity:0.13170734;fill:none;stroke:#000000;stroke-width:0.2;stroke-linecap:butt;stroke-linejoin:miter;stroke-miterlimit:4;stroke-dasharray:none;stroke-opacity:1;filter:url(#filter7249)"
         d="m 6.6578528,45.661555 5.5833302,-3.43535"
         id="path7235"
         inkscape:connector-curvature="0"
         sodipodi:nodetypes="cc" />
      <path
         transform="matrix(0.6742169,0,0,0.62405386,209.22965,71.693985)"
         sodipodi:nodetypes="cc"
         inkscape:connector-curvature="0"
         id="path7253"
         d="m 13.664638,40.51896 5.58333,-3.43535"
         style="opacity:0.03414636;fill:none;stroke:#000000;stroke-width:0.2;stroke-linecap:butt;stroke-linejoin:miter;stroke-miterlimit:4;stroke-dasharray:none;stroke-opacity:1;filter:url(#filter7255)" />
      <ellipse
         style="opacity:0.51707315;fill:url(#linearGradient7373);fill-opacity:1;stroke:#a5a1ef;stroke-width:0;stroke-linecap:round;stroke-linejoin:round;stroke-miterlimit:4;stroke-dasharray:none;stroke-dashoffset:0;stroke-opacity:0;filter:url(#filter7383)"
         id="path7379"
         transform="matrix(0.03562695,0.05462347,-0.0825934,0.04767207,224.7803,94.201293)"
         cx="-11.313708"
         cy="22.280701"
         rx="13.242182"
         ry="1.0928013" />
    </g>
    <path
       style="fill:#2c2cd7;fill-opacity:1;fill-rule:nonzero;stroke:none;stroke-width:0.03527782"
       d="m 135.81631,112.3246 c 0,0 -1.06258,1.01901 -0.29514,2.93013 0.7671,1.91116 2.70961,1.10412 2.70961,1.10412 l -0.12868,-1.21081 c 0,0 -1.26974,0.63212 -1.78228,-0.98053 0,0 -0.36487,-0.85756 0.5274,-1.29523 l -0.4312,-0.71334 z"
       id="path6069"
       inkscape:connector-curvature="0"
       inkscape:transform-center-x="-3.861425"
       inkscape:transform-center-y="-2.2323923"
       inkscape:export-xdpi="153.82771"
       inkscape:export-ydpi="153.82771" />
    <g
       id="g6762"
       transform="translate(-1.0718971,-0.04125391)"
       inkscape:export-xdpi="153.82771"
       inkscape:export-ydpi="153.82771">
      <g
         id="g6805"
         transform="matrix(0.80607498,0,0,0.90711151,67.719562,7.334695)">
        <g
           id="g6789">
          <g
             transform="matrix(0.28075686,0,0,0.23577621,10.008664,42.107757)"
             id="g6743">
            <path
               inkscape:connector-curvature="0"
               id="path6416"
               style="fill:#a47140;fill-opacity:1;fill-rule:nonzero;stroke:none;stroke-width:0.03527778"
               d="m 103.73701,207.51578 c 0.0847,0.90664 0.93486,3.67947 0.48683,4.24392 -0.33866,0.42686 -1.70744,0.2293 -2.28247,0.23989 -1.0548,0.0176 -2.109614,0.0353 -3.167944,0.0564 -7.3907,0.13406 -14.77787,0.28575 -22.16856,0.45508 -14.78139,0.33514 -29.55925,0.73378 -44.33359,1.19945 -8.36083,0.26105 -16.72159,0.52211 -25.0824301,0.85725 0.0106,-0.0388 -0.0106,-0.0811 -0.0529,-0.0811 -0.11286,0.0106 -0.17294,0.0459 -0.20465,0.0917 -0.014,0.004 -0.0247,0.007 -0.0353,0.0106 0.0317,-0.0564 0.0423,-0.12348 0.007,-0.19756 -0.6773,-1.44639 -0.44799,-3.97581 1.46403,-3.94758 0.23636,0.0388 0.47283,0.0741 0.71261,0.11288 0.25753,0.0388 0.37758,-0.32808 0.1094,-0.40569 -0.45861,-0.13053 -0.86431,-0.15169 -1.21349,-0.0952 -0.44813,-0.0388 -0.87146,-0.10936 -1.03727,-0.254 -0.54321,-0.47625 -0.26099,-1.34056 -0.20807,-1.94733 0.13409,-1.60514 0.21869,-3.21381 0.25397,-4.82248 0.0353,-1.60866 0.0212,-3.22086 -0.0388,-4.82952 -0.0247,-0.67734 -0.31034,-1.49225 0.35634,-1.9685 0.47984,-0.34573 1.87674,-0.32103 2.46944,-0.42334 0.2329001,-0.0388 0.17999,-0.43391 -0.0529,-0.41275 -0.64904,0.0529 -1.94027,0.17639 -2.32131,-0.58561 -0.15875,-0.31397 0.0495,-1.71097 0.0565,-2.0708 0.0317,-1.37937 0.0493,-2.75873 0.0529,-4.13809 0.003,-0.66675 -0.10943,-1.41816 0,-2.06728 0.15875,-0.97719 0.15515,-1.01952 1.13951,-1.40758 1.27,-0.50094 3.1996601,-0.44097 4.5648701,-0.56092 0.26459,-0.0212 0.27521,-0.41627 0,-0.4198 -1.08659,-0.007 -4.8013401,0.53622 -5.3657801,-0.48683 -0.28568,-0.51506 0.007,-2.04612 -0.003,-2.65642 -0.0212,-0.99483 -0.0599,-1.98967 -0.12001,-2.9845 -0.0529,-0.88547 -0.11991,-1.76742 -0.20451,-2.64936 -0.0777,-0.81492 -0.37758,-1.82739 -0.29644,-2.63525 0.10241,-1.0407 0.76909,-0.98073 1.82041,-1.06892 0.93486,-0.0811 1.8697201,-0.0741 2.8045801,-0.0353 0.26098,0.004 0.26098,-0.39511 0,-0.40569 -0.62438,-0.0318 -1.24174,-0.0247 -1.8556801,-0.004 -1.28404,-0.0388 -2.71639,-0.21519 -3.01625,-0.94192 -0.16934,-0.40216 -0.0176,-1.56633 -0.0176,-2.00025 0.004,-0.87136 0.007,-1.74272 0,-2.61408 12.3084201,-0.26458 24.6097801,-0.80786 36.9182001,-1.04775 4.91066,-0.0953 9.82486,-0.16228 14.73552,-0.21872 0.06,0.0459 0.1517,0.0459 0.20109,-0.004 0.46214,-0.007 0.92428,-0.007 1.38641,-0.0106 0.067,0.1023 0.23637,0.1023 0.29987,-0.004 6.82625,-0.0741 13.6525,-0.11642 20.47875,-0.11289 7.00264,0.004 14.00528,0.0459 21.004394,0.12347 0.0529,0 0.0917,-0.0141 0.127,-0.0388 l 0.13405,0.0141 c -0.0494,0.0353 -0.0741,0.0952 -0.0317,0.15169 0.0141,0.0176 0.0282,0.0353 0.0423,0.0564 0.0882,3.01625 0.13405,5.97252 -0.0282,8.99583 0,0.007 0.004,0.0106 0.004,0.0141 -0.0141,0 -0.0247,-0.004 -0.0423,-0.004 -0.82903,0.0635 -1.65806,0.13053 -2.490614,0.19403 -0.23284,0.0212 -0.28928,0.33867 -0.0564,0.41628 0.885474,0.28928 2.487094,0.43744 2.825754,1.44286 0.33514,0.98778 0.0388,2.65642 0.0529,3.70064 0.007,0.56092 0.17992,1.10419 -0.39158,1.47108 -0.28223,0.17992 -1.24531,-0.0564 -1.55928,-0.0847 -0.864314,-0.0741 -1.707454,-0.20461 -2.550594,-0.37395 -0.46213,-0.10583 -0.92427,-0.20814 -1.38641,-0.31044 -0.26106,-0.06 -0.37395,0.33866 -0.11289,0.40569 0.4198,0.10584 0.83961,0.19756 1.25942,0.28222 0.53269,0.11995 1.06538,0.23989 1.60161,0.35631 0.786694,0.17639 2.215444,0.20461 2.857504,0.64206 0.8255,0.56091 0.56091,2.14136 0.59266,2.99508 l 0.11642,3.05858 c 0.0741,1.92264 0.14464,3.84881 0.21872,5.77497 0.0388,1.016 0.0776,2.03553 0.11642,3.05506 0.0176,0.55739 0.21167,1.18181 -0.16581,1.62631 -0.36689,0.43744 -0.98777,0.34572 -1.54516,0.40216 -0.26811,0.0282 -0.27517,0.4057 0,0.42334 0.78316,0.0423 1.72508,-0.17639 2.17311,0.57855 0.44803,0.74789 -0.15522,1.61572 -0.77611,1.83092 -1.40406,0.47978 -3.432534,0.28575 -4.917734,0.41275 -0.26458,0.0212 -0.27516,0.4198 0,0.4198 0.87489,0.007 1.74978,0.0106 2.624674,0.0176 0.54681,0.004 2.16606,-0.27164 2.62467,0.0141 0.65264,0.41275 0.33161,1.52048 0.32455,2.15195 -0.0141,1.00894 0.0247,2.02142 0.11642,3.03036" />
            <path
               inkscape:connector-curvature="0"
               id="path6418"
               style="fill:#6e4022;fill-opacity:1;fill-rule:nonzero;stroke:none;stroke-width:0.03527778"
               d="m 58.634366,160.76567 c -0.15522,1.06186 -0.1905,2.14136 -0.10231,3.2138 -3.4925,0.0388 -6.98147,0.0882 -10.47044,0.14464 -0.0141,-1.08655 0.12347,-2.21544 0.0706,-3.302 3.46781,0.26458 7.03439,0.22578 10.5022,-0.0564" />
            <path
               inkscape:connector-curvature="0"
               id="path6420"
               style="fill:#6e4022;fill-opacity:1;fill-rule:nonzero;stroke:none;stroke-width:0.03527778"
               d="m 60.415896,271.32975 c -0.11642,0.0635 -0.16581,0.26812 -0.0212,0.33514 -5.19994,0.33514 -10.17411,0.0811 -15.35289,-0.26458 -0.0423,-0.0459 -0.0811,-0.0952 -0.12347,-0.14464 0.42686,-9.3098 0.79022,-18.62667 1.18533,-27.93647 0.39158,-9.30981 0.99483,-18.64078 1.12183,-27.96117 0.16228,-0.004 0.32809,-0.0106 0.49037,-0.0176 3.9758,-0.13405 7.95161,-0.23989 11.93094,-0.33514 -1.15711,18.72545 -0.64205,37.62728 0.76906,56.3245" />
            <path
               inkscape:connector-curvature="0"
               id="path6422"
               style="fill:#361f16;fill-opacity:1;fill-rule:nonzero;stroke:none;stroke-width:0.03527778"
               d="m 58.532056,163.97947 c -0.0882,-1.07244 -0.0529,-2.15194 0.10231,-3.2138 -3.46781,0.28222 -7.03439,0.32102 -10.5022,0.0564 0.0529,1.08656 -0.0847,2.21545 -0.0706,3.302 3.48897,-0.0564 6.97794,-0.10583 10.47044,-0.14464 z m 1.63689,-0.0141 c 0.004,-0.84314 0.0882,-1.67922 0.254,-2.50472 -0.52211,-0.0988 -0.98778,-0.28222 -1.41464,-0.56797 -0.11994,1.03011 -0.16933,2.04964 -0.15875,3.08327 0.44098,-0.007 0.87842,-0.007 1.31939,-0.0106 z m 0.22578,107.69953 c -0.14464,-0.067 -0.0952,-0.27164 0.0212,-0.33514 -1.41111,-18.69722 -1.92617,-37.59905 -0.76906,-56.3245 -3.97933,0.0953 -7.95514,0.20109 -11.93094,0.33514 -0.16228,0.007 -0.32809,0.0141 -0.49037,0.0176 -0.127,9.32039 -0.73025,18.65136 -1.12183,27.96117 -0.39511,9.3098 -0.75847,18.62667 -1.18533,27.93647 0.0423,0.0494 0.0811,0.0988 0.12347,0.14464 5.17878,0.34572 10.15295,0.59972 15.35289,0.26458 z m 1.78153,1.5487 c 0.30691,-0.54681 -0.66675,-1.06186 -1.32645,-1.35114 -0.0353,0.0706 -0.11641,0.1023 -0.20108,0.0953 -0.0282,0.0353 -0.0706,0.0635 -0.127,0.0706 -4.86481,0.58208 -10.19881,0.65264 -15.07067,-0.20814 2.40595,2.19781 6.38881,1.65453 9.47561,1.67569 1.72862,0.0141 3.45723,-0.0106 5.18231,-0.11641 0.35278,-0.0212 1.95086,0.0388 2.06728,-0.16581 z m 44.492334,-58.85039 c -0.0106,-0.0706 -0.0176,-0.13759 -0.0282,-0.20814 -0.51858,-0.67733 -1.0795,-1.31939 -1.70039,-1.90147 -0.0353,0.067 -0.0988,0.11641 -0.18344,0.11641 -7.270754,0.127 -14.545034,0.26811 -21.819314,0.42334 -25.14953,0.53975 -50.28847,1.35466 -75.4308801,2.16605 0.0387,0.0318 0.074,0.0564 0.0916,0.0706 0.25753,0.1905 0.53633,0.3563 0.80794,0.52916 0.57506,0.35984 1.1818,0.66323 1.7568601,1.02659 0.0916,0.06 0.10584,0.14816 0.0706,0.22225 6.96726,-0.62089 13.98048,-0.889 20.96548,-1.22061 25.13895,-1.18886 50.30964,-1.59103 75.469754,-1.22414 z m -43.606864,58.92447 c 0.0388,0.11995 -0.0811,0.23636 -0.19756,0.25047 -3.78883,0.41275 -7.59177,0.40217 -11.39825,0.29634 -2.55764,-0.0706 -4.91066,-0.0635 -6.58283,-2.1202 -0.0564,-0.0106 -0.11994,-0.0212 -0.17992,-0.0317 -0.0459,-0.0106 -0.0741,-0.0388 -0.0917,-0.0741 -0.0635,-0.0282 -0.10936,-0.0847 -0.10583,-0.17639 0.36336,-9.3733 0.78669,-18.74308 1.1818,-28.11286 0.39159,-9.30981 0.57856,-18.65489 1.23473,-27.94706 -12.38956,0.43745 -24.75795,1.31234 -37.1439801,1.78506 -0.20105,0.0106 -0.19403,-0.29281 0,-0.31045 0.0212,-0.004 0.0389,-0.004 0.0565,-0.007 -0.92082,-0.42686 -1.79917,-1.0407 -2.59994,-1.651 -0.0565,-0.0423 -0.13409,-0.12347 -0.20119,-0.2152 -0.0317,0 -0.06,0.004 -0.0916,0.004 -0.16937,0.007 -0.22229,-0.16228 -0.17293,-0.28222 -0.081,0.0318 -0.17639,0.0141 -0.22575,-0.0917 -0.69493,-1.47461 -0.47625,-3.59128 0.79019,-4.32153 -0.35623,-0.0529 -0.71261,-0.10936 -1.06881,-0.16581 -0.0812,-0.0141 -0.16235,-0.11994 -0.15173,-0.20108 0.47971,-4.58258 0.58208,-9.17928 0.30688,-13.7795 -0.007,-0.0847 0.067,-0.18697 0.15173,-0.20108 l 0.98418,-0.16934 c -0.14813,-0.0176 -0.29626,-0.0353 -0.44799,-0.06 -0.0882,-0.0176 -0.15875,-0.11994 -0.15515,-0.20461 0.11631,-3.44664 0.15875,-6.89681 0.11987,-10.34697 -0.004,-0.0847 0.0635,-0.18345 0.15173,-0.20109 0.84307,-0.15169 1.68974,-0.28575 2.5364,-0.40569 -0.71614,-0.004 -1.42875,-0.007 -2.14132,-0.0141 -0.11286,0 -0.21167,-0.0952 -0.21167,-0.20814 0.0882,-4.19453 -0.15515,-8.36789 -0.73381,-12.52009 -0.014,-0.1023 0.0247,-0.23636 0.14471,-0.25752 0.45501,-0.0811 0.9102,-0.14464 1.36521,-0.19403 -0.48327,-0.0635 -0.96312,-0.13406 -1.44639,-0.2152 -0.0846,-0.0141 -0.14111,-0.11289 -0.14111,-0.1905 -0.0388,-1.76741 -0.0317,-3.52777 0.11285,-5.29166 -0.15875,-0.06 -0.13049,-0.33867 0.0742,-0.34925 6.9884601,-0.39159 13.9946201,-0.53623 20.9902101,-0.73025 6.67103,-0.18345 13.34205,-0.33161 20.01308,-0.4445 0,-0.004 0,-0.004 0,-0.007 -0.0988,-1.07597 -0.20461,-2.33539 0.0282,-3.41136 -0.0247,-0.0706 0.004,-0.15522 0.0776,-0.19756 0.0212,-0.0141 0.0423,-0.0212 0.0635,-0.0212 0.004,0 0.004,0 0.004,0 0.14817,-0.0212 0.29634,-0.0388 0.4445,-0.06 0.0459,-0.007 0.0494,0.0564 0.0212,0.0741 0.34219,-0.24695 1.86267,0.0388 2.30011,0.0459 0.92075,0.0176 1.8415,0.0212 2.76578,0.0141 1.69686,-0.0141 3.39372,-0.0953 5.09058,-0.15522 0.0459,-0.0494 0.127,-0.067 0.1905,-0.0176 0.007,0.004 0.0106,0.007 0.0141,0.0106 0.0776,-0.004 0.15523,-0.007 0.23284,-0.0106 0.15522,-0.004 0.19402,0.15522 0.13052,0.25753 0.44803,0.27164 0.93487,0.43744 1.47462,0.49389 0.11994,0.0141 0.19402,0.1023 0.16933,0.22577 -0.17639,0.85725 -0.25753,1.7145 -0.26811,2.58939 13.8183,-0.14464 27.63661,-0.14816 41.454924,0.0106 0.21872,0 0.26105,0.27869 0.127,0.381 -0.0353,0.0247 -0.0741,0.0388 -0.127,0.0388 -6.999114,-0.0776 -14.001754,-0.11994 -21.004394,-0.12347 -6.82625,-0.004 -13.6525,0.0388 -20.47875,0.11289 -0.0635,0.10583 -0.23284,0.10583 -0.29987,0.004 -0.46213,0.004 -0.92427,0.004 -1.38641,0.0106 -0.0494,0.0494 -0.14111,0.0494 -0.20109,0.004 -4.91066,0.0564 -9.82486,0.12347 -14.73552,0.21872 -12.30842,0.23989 -24.60978,0.78317 -36.9182001,1.04775 0.007,0.87136 0.004,1.74272 0,2.61408 0,0.43392 -0.1517,1.59809 0.0176,2.00025 0.29986,0.72673 1.73221,0.90311 3.01625,0.94192 0.6139401,-0.0212 1.2313001,-0.0282 1.8556801,0.004 0.26098,0.0106 0.26098,0.40922 0,0.40569 -0.93486,-0.0388 -1.8697201,-0.0459 -2.8045801,0.0353 -1.05132,0.0882 -1.718,0.0282 -1.82041,1.06892 -0.0811,0.80786 0.21872,1.82033 0.29644,2.63525 0.0846,0.88194 0.15159,1.76389 0.20451,2.64936 0.0601,0.99483 0.0988,1.98967 0.12001,2.9845 0.0106,0.6103 -0.28222,2.14136 0.003,2.65642 0.56444,1.02305 4.2791901,0.47977 5.3657801,0.48683 0.27521,0.004 0.26459,0.39864 0,0.4198 -1.36521,0.11995 -3.2948701,0.06 -4.5648701,0.56092 -0.98436,0.38806 -0.98076,0.43039 -1.13951,1.40758 -0.10943,0.64912 0.003,1.40053 0,2.06728 -0.004,1.37936 -0.0212,2.75872 -0.0529,4.13809 -0.007,0.35983 -0.21527,1.75683 -0.0565,2.0708 0.38104,0.762 1.67227,0.63853 2.32131,0.58561 0.23291,-0.0212 0.2858201,0.37395 0.0529,0.41275 -0.5927,0.10231 -1.9896,0.0776 -2.46944,0.42334 -0.66668,0.47625 -0.38104,1.29116 -0.35634,1.9685 0.0601,1.60866 0.0741,3.22086 0.0388,4.82952 -0.0353,1.60867 -0.11988,3.21734 -0.25397,4.82248 -0.0529,0.60677 -0.33514,1.47108 0.20807,1.94733 0.16581,0.14464 0.58914,0.21519 1.03727,0.254 0.34918,-0.0564 0.75488,-0.0353 1.21349,0.0952 0.26818,0.0776 0.14813,0.4445 -0.1094,0.40569 -0.23978,-0.0388 -0.47625,-0.0741 -0.71261,-0.11288 -1.91202,-0.0282 -2.14133,2.50119 -1.46403,3.94758 0.0353,0.0741 0.0247,0.14111 -0.007,0.19756 0.0106,-0.004 0.0212,-0.007 0.0353,-0.0106 0.0317,-0.0459 0.0918,-0.0811 0.20465,-0.0917 0.0423,0 0.0635,0.0423 0.0529,0.0811 8.3608401,-0.33514 16.7216001,-0.5962 25.0824301,-0.85725 14.77434,-0.46567 29.5522,-0.86431 44.33359,-1.19945 7.39069,-0.16933 14.77786,-0.32102 22.16856,-0.45508 1.05833,-0.0212 2.113144,-0.0388 3.167944,-0.0564 0.57503,-0.0106 1.94381,0.18697 2.28247,-0.23989 0.44803,-0.56445 -0.40216,-3.33728 -0.48683,-4.24392 -0.0917,-1.00894 -0.13053,-2.02142 -0.11642,-3.03036 0.007,-0.63147 0.32809,-1.7392 -0.32455,-2.15195 -0.45861,-0.28575 -2.07786,-0.0106 -2.62467,-0.0141 -0.874894,-0.007 -1.749784,-0.0106 -2.624674,-0.0176 -0.27516,0 -0.26458,-0.39863 0,-0.4198 1.4852,-0.127 3.513674,0.067 4.917734,-0.41275 0.62089,-0.2152 1.22414,-1.08303 0.77611,-1.83092 -0.44803,-0.75494 -1.38995,-0.53622 -2.17311,-0.57855 -0.27517,-0.0176 -0.26811,-0.39511 0,-0.42334 0.55739,-0.0564 1.17827,0.0353 1.54516,-0.40216 0.37748,-0.4445 0.18345,-1.06892 0.16581,-1.62631 -0.0388,-1.01953 -0.0776,-2.03906 -0.11642,-3.05506 -0.0741,-1.92616 -0.14464,-3.85233 -0.21872,-5.77497 l -0.11642,-3.05858 c -0.0317,-0.85372 0.23284,-2.43417 -0.59266,-2.99508 -0.64206,-0.43745 -2.07081,-0.46567 -2.857504,-0.64206 -0.53623,-0.11642 -1.06892,-0.23636 -1.60161,-0.35631 -0.41981,-0.0847 -0.83962,-0.17638 -1.25942,-0.28222 -0.26106,-0.067 -0.14817,-0.46566 0.11289,-0.40569 0.46214,0.1023 0.92428,0.20461 1.38641,0.31044 0.84314,0.16934 1.68628,0.29986 2.550594,0.37395 0.31397,0.0282 1.27705,0.26458 1.55928,0.0847 0.5715,-0.36689 0.39863,-0.91016 0.39158,-1.47108 -0.0141,-1.04422 0.28222,-2.71286 -0.0529,-3.70064 -0.33866,-1.00542 -1.94028,-1.15358 -2.825754,-1.44286 -0.23283,-0.0776 -0.17639,-0.39511 0.0564,-0.41628 0.832554,-0.0635 1.661584,-0.13053 2.490614,-0.19403 0.0176,0 0.0282,0.004 0.0423,0.004 0,-0.004 -0.004,-0.007 -0.004,-0.0141 0.16228,-3.02331 0.11642,-5.97958 0.0282,-8.99583 -0.0141,-0.0212 -0.0282,-0.0388 -0.0423,-0.0564 -0.0423,-0.0564 -0.0176,-0.11641 0.0317,-0.15169 0.0106,-0.007 0.0212,-0.0141 0.0317,-0.0176 0.0776,-0.127 0.31045,-0.0847 0.33514,0.0988 0.007,0.0564 0.0106,0.11289 0.0176,0.17286 0.32456,0.34219 0.65264,0.68439 1.00189,1.00894 0.29633,0.27164 0.63147,0.52564 0.93486,0.80434 0.10231,-0.06 0.26106,-0.0423 0.30692,0.10583 0.0317,0.10583 0.06,0.20814 0.0882,0.31397 0.007,0.0141 0.0106,0.0317 0.0141,0.0459 0.98425,3.47486 0.26459,7.08378 0.25048,10.64331 -0.0141,4.064 0.52916,8.09978 0.94544,12.13555 0.83961,8.09626 -0.20461,16.24189 0.73378,24.31345 0.10583,0.16581 0.21519,0.32808 0.31397,0.50447 0.0811,0.14464 -0.127,0.25753 -0.21872,0.127 0,-0.004 -0.004,-0.004 -0.004,-0.004 -0.0141,0.0882 -0.0776,0.1658 -0.19756,0.1658 -7.150804,-0.10583 -14.301614,-0.15169 -21.452414,-0.13053 -7.90928,0.0212 -15.81503,0.13053 -23.72078,0.30692 0.004,0.0106 0.007,0.0212 0.007,0.0353 -0.71966,19.47333 0.71261,38.85495 1.74978,58.28595 0.0106,0.20461 -0.29986,0.20108 -0.3175,0.003 z m 0,-0.004 c -1.49931,-19.36044 -2.56469,-38.86906 -1.8415,-58.28594 0,-0.0106 0.004,-0.0176 0.004,-0.0282 -0.43392,0.0106 -0.86784,0.0176 -1.30528,0.0282 -0.54681,18.85244 -0.49389,37.63786 0.92781,56.45503 0.89605,0.40216 1.58397,0.97719 2.18722,1.78505 0.0106,0.0141 0.0212,0.0317 0.0282,0.0459 z m 39.687504,-71.374 c 0.40217,0.004 0.80081,0.004 1.20297,0.007 0.10584,0 0.21873,0.0952 0.21167,0.21166 -0.26458,3.21734 -0.0317,6.37823 0.69497,9.51795 0.62442,0.55033 1.18887,1.15711 1.67923,1.82033 -1.05481,-7.52122 0.0811,-15.21178 -0.65617,-22.77533 -0.39511,-4.03931 -0.97014,-8.07156 -1.04775,-12.13556 -0.0706,-3.85233 0.80081,-7.82461 -0.26458,-11.58875 -0.44098,-0.28928 -0.83609,-0.71261 -1.19239,-1.08656 -0.24342,-0.254 -0.47273,-0.51505 -0.70203,-0.78316 0.28928,2.794 0.20461,5.70089 -0.127,8.47372 -0.0106,0.0988 -0.0917,0.15169 -0.16933,0.15522 0.0247,0.11642 -0.0353,0.26459 -0.19403,0.27517 -0.47625,0.0388 -0.9525,0.0776 -1.42522,0.11289 0.65263,0.21519 1.3088,0.43039 1.96497,0.64558 0.0882,0.0282 0.15169,0.10583 0.15169,0.20461 0.0282,2.01789 0.0565,4.03578 0.0847,6.05367 0,0.11289 -0.0988,0.21167 -0.21167,0.21167 -0.2928,0 -0.58561,-0.007 -0.87841,-0.0212 l 1.10772,0.25047 c 0.0953,0.0212 0.15169,0.11289 0.15522,0.20109 0.21519,5.66208 0.42686,11.32416 0.64206,16.98625 0,0.0459 -0.0141,0.0811 -0.0388,0.11289 0.0741,0.007 0.14464,0.0106 0.21872,0.0141 0.11289,0.007 0.20814,0.0917 0.20814,0.21166 0,0.87136 -0.004,1.7392 -0.007,2.61056 0,0.12347 -0.0953,0.20108 -0.21167,0.21167 -0.39864,0.0353 -0.79728,0.067 -1.19592,0.1023" />
            <path
               inkscape:connector-curvature="0"
               id="path6424"
               style="fill:#855231;fill-opacity:1;fill-rule:nonzero;stroke:none;stroke-width:0.03527778"
               d="m 106.64037,214.15506 c 0.0106,0.0705 0.0176,0.13758 0.0282,0.20814 -25.160114,-0.36689 -50.330804,0.0353 -75.469754,1.22414 -6.985,0.33161 -13.99822,0.59972 -20.96548,1.22061 0.0353,-0.0741 0.0211,-0.16228 -0.0706,-0.22225 -0.5750601,-0.36336 -1.1818001,-0.66675 -1.7568601,-1.02659 -0.27161,-0.17286 -0.55041,-0.33866 -0.80794,-0.52916 -0.0176,-0.0141 -0.0529,-0.0388 -0.0916,-0.0706 25.1424101,-0.81139 50.2813501,-1.6263 75.4308801,-2.16605 7.27428,-0.15523 14.54856,-0.29634 21.819314,-0.42334 0.0847,0 0.14817,-0.0494 0.18344,-0.11641 0.62089,0.58208 1.18181,1.22414 1.70039,1.90147" />
            <path
               inkscape:connector-curvature="0"
               id="path6426"
               style="fill:#855231;fill-opacity:1;fill-rule:nonzero;stroke:none;stroke-width:0.03527778"
               d="m 105.8819,190.69181 c 0.73731,7.56355 -0.39864,15.25411 0.65617,22.77533 -0.49036,-0.66322 -1.05481,-1.27 -1.67923,-1.82033 -0.72672,-3.13972 -0.95955,-6.30061 -0.69497,-9.51795 0.007,-0.11641 -0.10583,-0.21166 -0.21167,-0.21166 -0.40216,-0.004 -0.8008,-0.004 -1.20297,-0.007 0.39864,-0.0353 0.79728,-0.067 1.19592,-0.1023 0.11642,-0.0106 0.21167,-0.0882 0.21167,-0.21167 0.004,-0.87136 0.007,-1.7392 0.007,-2.61056 0,-0.11994 -0.0952,-0.20461 -0.20814,-0.21166 -0.0741,-0.004 -0.14464,-0.007 -0.21872,-0.0141 0.0247,-0.0317 0.0388,-0.067 0.0388,-0.11289 -0.2152,-5.66209 -0.42687,-11.32417 -0.64206,-16.98625 -0.004,-0.0882 -0.06,-0.17992 -0.15522,-0.20109 l -1.10772,-0.25047 c 0.2928,0.0141 0.58561,0.0212 0.87841,0.0212 0.11289,0 0.21167,-0.0988 0.21167,-0.21167 -0.0282,-2.01789 -0.0565,-4.03578 -0.0847,-6.05367 0,-0.0988 -0.0635,-0.17639 -0.15169,-0.20461 -0.65617,-0.21519 -1.31234,-0.43039 -1.96497,-0.64558 0.47272,-0.0353 0.94897,-0.0741 1.42522,-0.11289 0.15875,-0.0106 0.21872,-0.15875 0.19403,-0.27517 0.0776,-0.004 0.15875,-0.0564 0.16933,-0.15522 0.33161,-2.77283 0.41628,-5.67972 0.127,-8.47372 0.2293,0.26811 0.45861,0.52916 0.70203,0.78316 0.3563,0.37395 0.75141,0.79728 1.19239,1.08656 1.06539,3.76414 0.19402,7.73642 0.26458,11.58875 0.0776,4.064 0.65264,8.09625 1.04775,12.13556" />
            <path
               inkscape:connector-curvature="0"
               id="path6428"
               style="fill:#593115;fill-opacity:1;fill-rule:nonzero;stroke:none;stroke-width:0.03527778"
               d="m 62.670146,271.14631 c 0.0494,0 0.0494,-0.0741 0,-0.0741 -0.0459,0 -0.0459,0.0741 0,0.0741 z m 0.39158,2.13783 c -0.007,-0.0141 -0.0176,-0.0317 -0.0282,-0.0459 -0.60325,-0.80786 -1.29117,-1.38289 -2.18722,-1.78505 -1.4217,-18.81717 -1.47462,-37.60259 -0.92781,-56.45503 0.43744,-0.0106 0.87136,-0.0176 1.30528,-0.0282 0,0.0106 -0.004,0.0176 -0.004,0.0282 -0.72319,19.41689 0.34219,38.9255 1.8415,58.28594" />
            <path
               inkscape:connector-curvature="0"
               id="path6430"
               style="fill:#361f16;fill-opacity:1;fill-rule:nonzero;stroke:none;stroke-width:0.03527778"
               d="m 62.670146,271.07223 c 0.0494,0 0.0494,0.0741 0,0.0741 -0.0459,0 -0.0459,-0.0741 0,-0.0741" />
            <path
               inkscape:connector-curvature="0"
               id="path6432"
               style="fill:#593115;fill-opacity:1;fill-rule:nonzero;stroke:none;stroke-width:0.03527778"
               d="m 60.849806,271.86245 c 0.6597,0.28928 1.63336,0.80433 1.32645,1.35114 -0.11642,0.20461 -1.7145,0.14464 -2.06728,0.1658 -1.72508,0.10584 -3.45369,0.13053 -5.18231,0.11642 -3.0868,-0.0212 -7.06966,0.52211 -9.47561,-1.67569 4.87186,0.86077 10.20586,0.79022 15.07067,0.20814 0.0564,-0.007 0.0988,-0.0353 0.127,-0.0706 0.0847,0.007 0.16581,-0.0247 0.20108,-0.0952" />
            <path
               inkscape:connector-curvature="0"
               id="path6434"
               style="fill:#593115;fill-opacity:1;fill-rule:nonzero;stroke:none;stroke-width:0.03527778"
               d="m 60.422946,161.46064 c -0.1658,0.8255 -0.25047,1.66158 -0.254,2.50472 -0.44097,0.004 -0.87841,0.004 -1.31939,0.0106 -0.0106,-1.03363 0.0388,-2.05316 0.15875,-3.08327 0.42686,0.28575 0.89253,0.46919 1.41464,0.56797" />
          </g>
          <text
             id="text6747"
             y="88.602242"
             x="12.363565"
             style="font-style:normal;font-weight:normal;font-size:6.11189413px;line-height:1.25;font-family:sans-serif;letter-spacing:0px;word-spacing:0px;fill:#000000;fill-opacity:1;stroke:none;stroke-width:0.15279736"
             xml:space="preserve"><tspan
               style="stroke-width:0.15279736"
               y="88.602242"
               x="12.363565"
               id="tspan6745"
               sodipodi:role="line">Robotika</tspan></text>
        </g>
      </g>
    </g>
    <path
       style="fill:#2c2cd7;fill-opacity:1;fill-rule:nonzero;stroke:none;stroke-width:0.05530232"
       d="m 84.463954,98.969107 0.0039,1.921343 c 1.440851,1.00809 3.884264,0.77919 5.298304,0.14963 l -0.839873,-1.467057 c -1.06297,0.838207 -2.599696,0.349914 -2.599696,0.349914 -1.089124,-0.270662 -1.62273,-0.615791 -1.862597,-0.95383 z"
       id="path124-0-0"
       inkscape:connector-curvature="0"
       sodipodi:nodetypes="cccccc"
       inkscape:export-xdpi="153.82771"
       inkscape:export-ydpi="153.82771" />
    <path
       inkscape:connector-curvature="0"
       id="path152"
       style="fill:#d92626;fill-opacity:1;fill-rule:nonzero;stroke:none;stroke-width:0.03995472"
       d="m 92.600469,98.622808 -3.646692,3.876302 -1.41958,-1.32667 3.427928,-3.899048 1.638344,1.349416"
       inkscape:export-xdpi="153.82771"
       inkscape:export-ydpi="153.82771" />
  </g>
</svg>
